ply
format ascii 1.0
element vertex 973
property float x
property float y
property float z
element face 1830
property list uchar int vertex_index
end_header
6.0 9.0 4.28926
10.759637 1.7596368 3.0
6.0 8.0 6.0931334
6.0 8.782713 4.7827125
6.6427794 3.0 9.0
2.9655447 9.965545 4.9655447
10.075826 2.0 5.0758257
1.0 6.0 9.656902
8.431144 6.0 5.4311438
3.0 8.740807 7.0
6.0931334 8.0 6.0
6.9114175 5.0 8.0
6.225349 9.225349 3.225349
9.631057 5.631057 3.0
4.761636 9.761636 4.0
9.943625 3.0 5.0
10.054908 4.0 4.0
5.0758257 2.0 10.075826
6.0 4.7827125 8.782713
4.9469094 8.0 6.9469094
1.0 8.999 7.0
4.9524937 7.9524937 7.0
5.0 3.7384913 9.738491
1.0 5.338298 10.0
6.115412 4.115412 9.0
5.338298 10.0 1.0
7.310313 8.0 4.310313
10.360621 4.3606215 2.0
8.0 8.137555 1.0
2.0 10.360621 4.3606215
1.7927511 2.792751 10.792751
1.0 6.4093657 9.409366
3.7262704 6.72627 8.726271
2.0 5.0758257 10.075826
8.0 4.8593135 7.0
5.3512635 9.351263 4.3512635
3.0 5.631057 9.631057
6.040737 8.040737 6.0
8.399819 6.3998194 5.0
5.0 7.4776626 7.4776626
8.040737 6.040737 6.0
10.538208 4.0 1.0
7.7440033 4.0 7.7440033
3.5075052 4.507505 10.0
8.553279 7.5532784 1.0
4.2051477 10.205148 3.2051477
6.0758257 9.075826 4.0
10.0 4.9022975 2.9022973
8.935749 7.0 2.0
1.7596368 3.0 10.759637
3.0 7.927984 7.927984
5.109833 1.1098326 10.109833
3.0 8.855052 6.855052
6.919019 1.9190192 9.0
10.241953 4.2419524 3.0
9.061543 4.061544 6.061544
2.0952694 10.095269 5.0
9.0 4.115412 6.115412
7.0 8.939933 1.9399328
10.952494 1.9524938 1.0
9.952494 2.9524937 5.0
7.0 1.0 8.999
5.0 2.9524937 9.952494
4.507505 3.5075052 10.0
7.0 7.236444 6.0
6.0 9.512524 2.5125237
6.535917 8.535917 4.535917
1.5354631 7.535463 8.535463
7.0 6.6493163 6.6493163
8.0 7.621931 3.6219308
2.0 5.2260647 10.0
1.0 2.826685 10.826685
7.715089 6.715089 5.715089
10.485517 4.0 2.0
8.129253 8.0 1.1292531
6.919019 9.0 1.9190192
2.1707547 5.1707544 10.0
10.032565 4.032565 4.032565
10.792751 2.792751 1.7927511
5.0 6.3998194 8.399819
8.0 6.0 6.0931334
2.871218 8.871218 6.871218
5.3621492 7.3621492 7.3621492
3.3299057 6.0 9.3299055
6.9469094 8.0 4.9469094
3.225349 9.225349 6.225349
8.183247 7.183247 4.183247
2.0 8.935749 7.0
7.0 4.2833943 8.283394
7.788425 7.788425 3.7884252
8.071068 8.071068 1.0
10.164022 1.0 5.0
6.0 5.4311438 8.431144
1.0 8.553279 7.5532784
6.3998194 8.399819 5.0
7.715089 5.715089 6.715089
6.0 2.0 9.598621
5.4499884 5.0 9.0
2.7857695 7.0 8.785769
1.0 4.3998194 10.399819
2.0 10.598105 3.5981057
1.0 7.5532784 8.553279
9.0 6.919019 1.9190192
6.061544 4.061544 9.061543
1.0 9.409366 6.4093657
6.72627 3.7262704 8.726271
9.161969 5.0 5.1619697
9.0 5.4499884 5.0
3.4731948 10.473195 3.0
9.754194 5.7541947 1.7541946
10.615237 1.6152372 3.6152372
1.1292531 8.0 8.129253
8.0 8.129253 1.1292531
6.4093657 9.409366 1.0
6.0 9.121926 4.0
6.0 8.06893 6.0
5.5125237 8.0 6.5125237
3.0 3.4731948 10.473195
1.7541946 9.754194 5.7541947
10.0 5.338298 1.0
3.2051477 4.2051477 10.205148
9.075826 6.0758257 4.0
4.8593135 8.0 7.0
7.4093657 3.0 8.409366
10.156172 1.1561716 5.0
4.0 10.0 4.144974
4.5962753 7.5962753 7.5962753
3.225349 6.225349 9.225349
6.0 3.0 9.421996
10.792751 1.7927511 2.792751
9.0 5.0 5.4499884
3.0 6.262727 9.262727
5.7541947 9.754194 1.7541946
9.960879 4.9608793 3.0
7.0 7.925452 5.0
6.0 8.040737 6.040737
2.792751 1.7927511 10.792751
9.754194 1.7541946 5.7541947
1.9095002 1.9095002 10.9095
4.0 2.0 10.485517
6.0 8.675116 5.0
5.1707544 10.0 2.1707547
3.6219308 7.621931 8.0
4.849844 8.849844 5.849844
5.0 9.952494 2.9524937
7.5962753 7.5962753 4.5962753
6.999 8.999 1.0
10.826685 1.0 2.826685
2.672003 9.672003 5.6720033
1.0 9.781235 5.7812347
10.399819 4.3998194 1.0
9.598621 6.0 2.0
2.0 10.899396 2.0
2.0 9.744003 5.7440033
4.040737 10.040737 4.0
9.0 4.696236 5.696236
3.4473064 6.4473066 9.0
4.535917 8.535917 6.535917
6.3998194 5.0 8.399819
5.7440033 2.0 9.744003
3.0 10.649317 2.6493165
2.7215447 6.7215447 9.0
8.675116 5.0 6.0
2.0 8.035602 8.035602
2.0 8.517565 7.517565
8.183247 4.183247 7.183247
6.97037 4.97037 7.97037
4.2051477 3.2051477 10.205148
10.109833 5.109833 1.1098326
7.5532784 8.553279 1.0
10.797608 1.0 3.0
9.761636 4.761636 4.0
5.5356216 9.535622 3.5356216
3.5354714 10.535471 2.5354714
8.0 8.0 2.334996
5.4311438 6.0 8.431144
10.068918 2.0689182 5.068918
10.325893 3.0 4.0
8.935749 2.0 7.0
9.656902 1.0 6.0
7.3621492 7.3621492 5.3621492
2.5125237 9.512524 6.0
5.1619697 9.161969 5.0
8.939933 1.9399328 7.0
6.715089 5.715089 7.715089
8.0 3.6219308 7.621931
6.0 7.121724 7.121724
7.0 3.5624611 8.562461
9.0 6.115412 4.115412
2.5354714 10.535471 3.5354714
5.438834 9.438834 4.0
9.087711 4.087711 6.0
9.061543 6.061544 4.061544
8.0 6.0931334 6.0
6.773503 6.773503 6.773503
4.761636 4.0 9.761636
5.6720033 2.672003 9.672003
5.849844 8.849844 4.849844
9.744003 2.0 5.7440033
3.0 10.241953 4.2419524
10.325504 2.3255043 4.3255043
3.0 10.473195 3.4731948
8.071068 1.0 8.071068
8.0 8.05783 2.0578299
5.0758257 10.075826 2.0
2.0 2.0 10.899396
7.0 8.283394 4.2833943
3.0 7.0 8.740807
8.032565 8.032565 2.0325649
5.7440033 9.744003 2.0
4.0 10.260952 3.2609515
10.746284 3.0 2.0
8.0 6.9114175 5.0
7.535463 8.535463 1.5354631
2.5354714 3.5354714 10.535471
8.0 1.1292531 8.129253
1.1561716 5.0 10.156172
2.6939592 2.6939592 10.693959
3.0 2.0 10.746284
10.040737 4.0 4.040737
7.0 6.1312976 7.1312976
2.0 10.949848 1.0
8.068918 8.068918 1.0689183
10.325893 4.0 3.0
6.7215447 9.0 2.7215447
1.0 5.7812347 9.781235
8.535463 7.535463 1.5354631
3.0 9.943625 5.0
3.5356216 9.535622 5.5356216
4.0 10.040737 4.040737
2.0 6.3729553 9.372955
3.5356216 5.5356216 9.535622
1.9046997 10.904699 2.0
8.409366 3.0 7.4093657
10.260952 4.0 3.2609515
6.115412 9.0 4.115412
9.421996 6.0 3.0
6.9655447 8.965545 1.9655448
8.785769 2.7857695 7.0
8.535917 4.535917 6.535917
1.6152372 3.6152372 10.615237
9.598621 2.0 6.0
6.262727 9.262727 3.0
4.115412 9.0 6.115412
4.3606215 10.360621 2.0
7.5962753 4.5962753 7.5962753
3.0 7.4093657 8.409366
8.726271 6.72627 3.7262704
7.4776626 5.0 7.4776626
6.999 1.0 8.999
2.0 3.5981057 10.598105
4.9022975 10.0 2.9022973
3.0 6.6427794 9.0
2.0 10.0 5.2260647
7.0 3.0 8.740807
8.0 4.9469094 6.9469094
10.109583 5.0 2.0
4.9608793 3.0 9.960879
6.6427794 9.0 3.0
8.668911 4.0 6.668911
6.9114175 2.0 9.0
6.0 6.0 8.06893
5.0 5.0 9.242784
4.9655447 9.965545 2.9655447
3.5075052 10.0 4.507505
1.3858918 10.385892 4.385892
8.999 7.0 1.0
3.39615 3.39615 10.39615
1.39615 6.39615 9.39615
1.0 10.826685 2.826685
2.3255043 4.3255043 10.325504
4.385892 10.385892 1.3858918
1.3052005 5.3052006 10.0
3.0 3.0 10.590634
9.535622 5.5356216 3.5356216
5.631057 3.0 9.631057
9.39615 6.39615 1.39615
7.2256594 8.225659 4.0
2.672003 5.6720033 9.672003
3.7262704 8.726271 6.72627
10.797608 3.0 1.0
6.7215447 2.7215447 9.0
10.0 4.144974 4.0
10.0 1.0 5.338298
6.3030205 5.3030205 8.3030205
8.0 6.9469094 4.9469094
7.0 2.0 8.935749
1.9046997 2.0 10.904699
5.1707544 2.1707547 10.0
5.12263 5.12263 9.12263
10.826685 2.826685 1.0
8.740807 3.0 7.0
7.559191 5.559191 7.0
9.262727 6.262727 3.0
10.0 4.0736847 4.0736847
7.087518 6.087518 7.087518
5.0 9.0 5.4499884
7.0 1.9399328 8.939933
4.8593135 3.0 10.0
8.0 2.0578299 8.05783
9.0 6.7215447 2.7215447
1.1098326 10.109833 5.109833
8.964108 2.0 6.9641085
8.035602 2.0 8.035602
6.0 9.621931 1.6219308
4.4731946 9.473195 5.0
2.8795173 8.0 7.8795176
7.087518 7.087518 6.087518
8.0 6.047733 6.047733
8.855052 6.855052 3.0
7.0 8.562461 3.5624611
1.9095002 10.9095 1.9095002
1.0 10.999 1.0
2.0 1.9046997 10.904699
10.485517 2.0 4.0
3.2051477 10.205148 4.2051477
5.3052006 1.3052005 10.0
9.0 6.4473066 3.4473064
1.0689183 8.068918 8.068918
10.109833 1.1098326 5.109833
4.0 9.438834 5.438834
2.4707484 7.4707484 8.470749
7.9524937 4.9524937 7.0
4.9524937 7.0 7.9524937
6.9114175 9.0 2.0
6.0 4.28926 9.0
5.5962753 8.596275 5.5962753
1.5125235 4.0 10.512524
3.3299057 9.3299055 6.0
4.0 3.2609515 10.260952
6.9608793 7.9608793 5.0
6.999 1.0 9.0
7.97037 4.97037 6.97037
2.0689182 10.068918 5.068918
5.0 4.4731946 9.473195
5.7812347 9.781235 1.0
9.372955 2.0 6.3729553
6.0758257 4.0 9.075826
10.535471 2.5354714 3.5354714
9.12263 5.12263 5.12263
3.0 10.325893 4.0
10.39615 3.39615 3.39615
5.559191 7.559191 7.0
4.9608793 9.960879 3.0
7.9608793 5.0 6.9608793
6.339134 2.3391345 9.339134
3.0 1.7596368 10.759637
10.0 5.1707544 2.1707547
7.1312976 7.0 6.1312976
4.0 9.0 6.185841
8.408942 4.0 7.0
2.0689182 5.068918 10.068918
4.0 6.0 9.121926
2.9524937 9.952494 5.0
4.0 10.538208 1.0
6.9608793 5.0 7.9608793
3.0 10.746284 2.0
3.5981057 2.0 10.598105
8.0 2.8795173 7.8795176
4.087711 6.0 9.087711
9.087711 6.0 4.087711
2.0 8.0 8.06893
2.0 4.3606215 10.360621
10.0 3.0 4.8593135
2.0 8.964108 6.9641085
8.675116 6.0 5.0
5.0 8.399819 6.3998194
4.4731946 5.0 9.473195
10.904699 2.0 1.9046997
3.0 6.855052 8.855052
10.598105 3.5981057 2.0
10.156172 5.0 1.1561716
9.621931 1.6219308 6.0
4.0 1.5125235 10.512524
8.535463 1.5354631 7.535463
5.5356216 3.5356216 9.535622
9.805592 3.8055916 4.8055916
6.5125237 8.0 5.5125237
2.0 9.372955 6.3729553
4.0 4.040737 10.040737
2.9022973 10.0 4.9022975
7.4696016 8.0 4.0
5.5962753 5.5962753 8.596275
8.965545 6.9655447 1.9655448
1.0 10.113514 5.1135144
4.0 6.668911 8.668911
4.2833943 7.0 8.283394
8.0 2.0 8.06893
7.121724 6.0 7.121724
4.032565 10.032565 4.032565
1.0 1.9524938 10.952494
4.0 4.144974 10.0
7.517565 8.517565 2.0
7.0 7.9524937 4.9524937
6.0 1.6219308 9.621931
10.512524 1.5125235 4.0
1.0 8.999 6.999
4.0 9.121926 6.0
7.0 4.8593135 8.0
4.310313 7.310313 8.0
4.0 7.0 8.408942
1.0 6.999 9.0
2.0 1.0 10.949848
10.904699 1.9046997 2.0
5.0 7.925452 7.0
2.0 6.9114175 9.0
8.225659 7.2256594 4.0
8.029279 6.0292783 6.0292783
3.6152372 1.6152372 10.615237
10.598105 2.0 3.5981057
4.0 7.2256594 8.225659
2.0 2.7827127 10.782713
5.0 7.9608793 6.9608793
7.9608793 6.9608793 5.0
1.0 9.656902 6.0
5.068918 2.0689182 10.068918
5.1619697 5.0 9.161969
4.28926 9.0 6.0
4.3255043 2.3255043 10.325504
3.6219308 8.0 7.621931
2.0 5.7440033 9.744003
5.1135144 10.113514 1.0
3.4473064 9.0 6.4473066
5.715089 6.715089 7.715089
2.9655447 4.9655447 9.965545
3.3512635 7.3512635 8.351263
7.183247 8.183247 4.183247
8.0 5.0 6.9114175
8.05783 8.0 2.0578299
10.0 2.0 5.2260647
2.9022973 4.9022975 10.0
8.283394 4.2833943 7.0
6.0 6.598106 7.598106
2.826685 1.0 10.826685
7.9360304 2.9360304 7.9360304
2.0 7.0 8.935749
3.0 4.0 10.325893
6.3729553 2.0 9.372955
6.0 9.656902 1.0
5.801956 8.801956 5.0
6.0931334 6.0 8.0
9.242784 5.0 5.0
9.351263 5.3512635 4.3512635
5.3030205 8.3030205 6.3030205
7.621931 3.6219308 8.0
2.4222841 4.0 10.422284
4.0 8.668911 6.668911
3.6393182 1.0 10.639318
8.408942 7.0 4.0
9.965545 2.9655447 4.9655447
10.095269 2.0952694 5.0
9.0 6.999 1.0
7.3512635 8.351263 3.3512635
10.0 5.2260647 2.0
9.672003 2.672003 5.6720033
10.360621 2.0 4.3606215
10.0 5.3052006 1.3052005
5.0 8.675116 6.0
9.0 5.229822 5.229822
8.849844 5.849844 4.849844
8.0 7.310313 4.310313
3.6393182 10.639318 1.0
1.3858918 4.385892 10.385892
10.639318 1.0 3.6393182
4.3512635 5.3512635 9.351263
2.8795173 7.8795176 8.0
8.0 7.0 4.8593135
10.473195 3.4731948 3.0
9.599847 4.599847 4.599847
5.0 5.1619697 9.161969
6.087518 7.087518 7.087518
3.0 9.631057 5.631057
9.0 2.7215447 6.7215447
4.9655447 2.9655447 9.965545
4.0 5.438834 9.438834
2.7827127 2.0 10.782713
8.855052 3.0 6.855052
7.0 8.0 4.8593135
2.792751 10.792751 1.7927511
6.6493163 6.6493163 7.0
10.260952 3.2609515 4.0
6.262727 3.0 9.262727
4.28926 6.0 9.0
2.3391345 9.339134 6.339134
10.0 2.6683376 5.0
9.952494 5.0 2.9524937
6.0 7.598106 6.598106
4.115412 6.115412 9.0
4.2419524 3.0 10.241953
4.97037 6.97037 7.97037
4.0736847 4.0736847 10.0
7.0 5.0 7.925452
9.473195 4.4731946 5.0
8.05783 2.0578299 8.0
10.0 4.507505 3.5075052
8.225659 4.0 7.2256594
2.0325649 8.032565 8.032565
3.0 10.759637 1.7596368
4.3606215 2.0 10.360621
7.0 4.9524937 7.9524937
10.385892 4.385892 1.3858918
3.7384913 5.0 9.738491
6.0 9.087711 4.087711
7.8795176 2.8795173 8.0
9.0 6.9114175 2.0
4.97037 7.97037 6.97037
9.121926 4.0 6.0
5.0 10.0 2.6683376
5.0 8.0 6.9114175
7.183247 4.183247 8.183247
9.3299055 6.0 3.3299057
9.621931 6.0 1.6219308
7.559191 7.0 5.559191
4.3998194 1.0 10.399819
7.598106 6.0 6.598106
6.9114175 8.0 5.0
5.109833 10.109833 1.1098326
9.225349 6.225349 3.225349
3.8055916 4.8055916 9.805592
1.39615 9.39615 6.39615
6.715089 7.715089 5.715089
7.236444 7.0 6.0
6.047733 6.047733 8.0
3.5354714 2.5354714 10.535471
8.939933 7.0 1.9399328
3.0 4.2419524 10.241953
6.6493163 7.0 6.6493163
10.0 3.5075052 4.507505
7.0 7.0 6.2781177
9.39615 1.39615 6.39615
10.759637 3.0 1.7596368
9.0 4.28926 6.0
9.0 6.6427794 3.0
8.0 2.334996 8.0
8.0 4.310313 7.310313
4.385892 1.3858918 10.385892
5.12263 9.12263 5.12263
3.0 10.590634 3.0
5.4499884 9.0 5.0
6.0292783 6.0292783 8.029279
6.0 4.0 9.121926
1.9190192 6.919019 9.0
2.0 4.0 10.485517
6.668911 4.0 8.668911
7.927984 3.0 7.927984
8.801956 5.801956 5.0
5.438834 4.0 9.438834
8.785769 7.0 2.7857695
6.855052 8.855052 3.0
9.738491 5.0 3.7384913
5.0 7.0 7.925452
10.999 1.0 1.0
7.598106 6.598106 6.0
8.3030205 6.3030205 5.3030205
8.562461 3.5624611 7.0
1.9655448 6.9655447 8.965545
6.5125237 5.5125237 8.0
2.0578299 8.05783 8.0
4.507505 10.0 3.5075052
8.351263 7.3512635 3.3512635
2.0 10.075826 5.0758257
5.696236 4.696236 9.0
7.0 6.0 7.236444
6.4473066 3.4473064 9.0
9.225349 3.225349 6.225349
1.9190192 9.0 6.919019
2.0952694 5.0 10.095269
5.801956 5.0 8.801956
8.040737 6.0 6.040737
7.0 8.740807 3.0
2.0 3.0 10.746284
9.512524 6.0 2.5125237
3.2609515 10.260952 4.0
10.899396 2.0 2.0
5.715089 7.715089 6.715089
7.4707484 2.4707484 8.470749
3.0 5.0 9.943625
5.0 9.161969 5.1619697
5.068918 10.068918 2.0689182
10.0 2.1707547 5.1707544
2.0 10.746284 3.0
4.8055916 3.8055916 9.805592
3.0 8.0 7.8504863
6.339134 9.339134 2.3391345
3.8055916 9.805592 4.8055916
5.2260647 10.0 2.0
5.696236 9.0 4.696236
1.0 10.399819 4.3998194
5.559191 7.0 7.559191
4.0 7.4696016 8.0
9.512524 2.5125237 6.0
6.0 9.598621 2.0
10.068918 5.068918 2.0689182
10.949848 2.0 1.0
10.422284 2.4222841 4.0
8.470749 2.4707484 7.4707484
6.9641085 2.0 8.964108
9.535622 3.5356216 5.5356216
3.0 1.0 10.797608
5.3512635 4.3512635 9.351263
1.0 2.0 10.949848
8.871218 2.871218 6.871218
2.6493165 10.649317 3.0
6.39615 9.39615 1.39615
8.06893 8.0 2.0
5.6720033 9.672003 2.672003
4.9469094 6.9469094 8.0
3.6152372 10.615237 1.6152372
8.431144 5.4311438 6.0
7.4696016 4.0 8.0
8.801956 5.0 5.801956
4.0 4.761636 9.761636
5.0 8.801956 5.801956
3.2609515 4.0 10.260952
2.0 10.485517 4.0
1.0 10.949848 2.0
4.087711 9.087711 6.0
10.590634 3.0 3.0
10.0 4.8593135 3.0
5.1135144 1.0 10.113514
8.283394 7.0 4.2833943
5.0 6.9114175 8.0
1.0 1.0 10.999
5.0 9.943625 3.0
1.0 9.0 6.999
8.0 7.8795176 2.8795173
2.826685 10.826685 1.0
7.9524937 7.0 4.9524937
2.6683376 10.0 5.0
10.241953 3.0 4.2419524
1.9524938 1.0 10.952494
10.205148 4.2051477 3.2051477
7.4776626 7.4776626 5.0
4.0 9.075826 6.0758257
6.040737 6.0 8.040737
9.262727 3.0 6.262727
1.0 3.6393182 10.639318
1.7927511 10.792751 2.792751
1.1098326 5.109833 10.109833
8.129253 1.1292531 8.0
7.4707484 8.470749 2.4707484
10.325504 4.3255043 2.3255043
7.2256594 4.0 8.225659
3.0 2.6493165 10.649317
6.420754 7.420754 6.420754
7.0 4.0 8.408942
6.668911 8.668911 4.0
4.2833943 8.283394 7.0
8.0 8.06893 2.0
10.109583 2.0 5.0
1.0 5.0 10.164022
9.161969 5.1619697 5.0
10.649317 3.0 2.6493165
8.740807 7.0 3.0
1.0 3.0 10.797608
10.473195 3.0 3.4731948
6.0 8.431144 5.4311438
1.7596368 10.759637 3.0
1.9655448 8.965545 6.9655447
1.1292531 8.129253 8.0
5.229822 9.0 5.229822
8.726271 3.7262704 6.72627
2.0 8.06893 8.0
4.183247 7.183247 8.183247
4.061544 9.061543 6.061544
9.960879 3.0 4.9608793
6.185841 4.0 9.0
1.0 8.137555 8.0
2.871218 6.871218 8.871218
9.672003 5.6720033 2.672003
6.0 3.3299057 9.3299055
1.0 4.0 10.538208
6.97037 7.97037 4.97037
3.0 7.8504863 8.0
4.696236 9.0 5.696236
1.7541946 5.7541947 9.754194
9.781235 5.7812347 1.0
9.631057 3.0 5.631057
5.2260647 2.0 10.0
10.095269 5.0 2.0952694
9.372955 6.3729553 2.0
4.0 6.0758257 9.075826
3.0 4.9608793 9.960879
9.409366 6.4093657 1.0
6.999 9.0 1.0
10.639318 3.6393182 1.0
7.4093657 8.409366 3.0
6.0 6.0931334 8.0
10.693959 2.6939592 2.6939592
2.7857695 8.785769 7.0
2.6683376 5.0 10.0
4.0 2.4222841 10.422284
8.137555 8.0 1.0
10.952494 1.0 1.9524938
10.538208 1.0 4.0
6.2781177 7.0 7.0
5.229822 5.229822 9.0
10.399819 1.0 4.3998194
4.0 9.656902 5.0
6.39615 1.39615 9.39615
6.9641085 8.964108 2.0
5.0 5.4499884 9.0
2.4707484 8.470749 7.4707484
8.999 6.999 1.0
4.061544 6.061544 9.061543
2.7215447 9.0 6.7215447
1.9399328 7.0 8.939933
8.409366 7.4093657 3.0
3.0 4.8593135 10.0
7.420754 6.420754 6.420754
8.470749 7.4707484 2.4707484
10.164022 5.0 1.0
4.849844 5.849844 8.849844
10.075826 5.0758257 2.0
7.927984 7.927984 3.0
9.761636 4.0 4.761636
4.0 4.0 10.054908
8.035602 8.035602 2.0
7.517565 2.0 8.517565
5.631057 9.631057 3.0
4.144974 4.0 10.0
3.0 9.262727 6.262727
9.656902 4.0 5.0
8.517565 2.0 7.517565
8.553279 1.0 7.5532784
3.0 10.797608 1.0
5.4311438 8.431144 6.0
7.0 8.999 1.0
4.535917 6.535917 8.535917
3.5981057 10.598105 2.0
1.5354631 8.535463 7.535463
10.113514 1.0 5.1135144
4.0 10.422284 2.4222841
4.144974 10.0 4.0
8.3030205 5.3030205 6.3030205
7.0 8.935749 2.0
6.4093657 1.0 9.409366
1.3052005 10.0 5.3052006
8.351263 3.3512635 7.3512635
10.0 1.3052005 5.3052006
2.9360304 7.9360304 7.9360304
7.0 7.559191 5.559191
3.3512635 8.351263 7.3512635
9.0 1.0 6.999
5.0 10.109583 2.0
4.8055916 9.805592 3.8055916
6.9655447 1.9655448 8.965545
9.0 3.4473064 6.4473066
9.656902 6.0 1.0
1.9399328 8.939933 7.0
1.0 8.071068 8.071068
4.7827125 6.0 8.782713
9.473195 5.0 4.4731946
8.0 1.0 8.137555
8.399819 5.0 6.3998194
8.999 1.0 6.999
9.351263 4.3512635 5.3512635
8.965545 1.9655448 6.9655447
5.3052006 10.0 1.3052005
4.0 6.185841 9.0
2.7827127 10.782713 2.0
7.8504863 8.0 3.0
6.0 1.0 9.656902
9.0 5.696236 4.696236
7.97037 6.97037 4.97037
4.8593135 7.0 8.0
9.943625 5.0 3.0
2.0 10.782713 2.7827127
3.4731948 3.0 10.473195
6.185841 9.0 4.0
8.535917 6.535917 4.535917
7.7440033 7.7440033 4.0
1.6152372 10.615237 3.6152372
1.0 8.0 8.137555
1.0 7.0 8.999
3.5624611 7.0 8.562461
4.3512635 9.351263 5.3512635
4.0736847 10.0 4.0736847
8.596275 5.5962753 5.5962753
8.849844 4.849844 5.849844
5.7541947 1.7541946 9.754194
7.0 8.785769 2.7857695
9.656902 5.0 4.0
7.236444 6.0 7.0
8.068918 1.0689183 8.068918
6.0 7.236444 7.0
6.0 4.087711 9.087711
9.075826 4.0 6.0758257
7.9360304 7.9360304 2.9360304
9.339134 2.3391345 6.339134
4.0 9.761636 4.761636
8.782713 4.7827125 6.0
9.438834 5.438834 4.0
6.0 2.5125237 9.512524
5.0 9.656902 4.0
2.0 6.0 9.598621
4.3998194 10.399819 1.0
10.422284 4.0 2.4222841
2.0 10.904699 1.9046997
6.72627 8.726271 3.7262704
8.06893 2.0 8.0
9.0 1.9190192 6.919019
8.06893 6.0 6.0
9.744003 5.7440033 2.0
5.0 10.095269 2.0952694
1.0 10.797608 3.0
3.0 8.409366 7.4093657
10.746284 2.0 3.0
7.3621492 5.3621492 7.3621492
4.0 10.325893 3.0
8.032565 2.0325649 8.032565
9.738491 3.7384913 5.0
10.205148 3.2051477 4.2051477
6.0292783 8.029279 6.0292783
7.0 2.7857695 8.785769
2.3391345 6.339134 9.339134
10.040737 4.040737 4.0
5.0 6.0 8.675116
2.0 9.598621 6.0
1.0 10.0 5.338298
5.0 2.6683376 10.0
8.782713 6.0 4.7827125
9.0 4.0 6.185841
5.3030205 6.3030205 8.3030205
5.0 6.9608793 7.9608793
6.1312976 7.1312976 7.0
3.7384913 9.738491 5.0
6.225349 3.225349 9.225349
6.598106 6.0 7.598106
3.0 6.0 9.421996
5.7812347 1.0 9.781235
9.438834 4.0 5.438834
3.5624611 8.562461 7.0
5.0 2.0 10.109583
7.8504863 3.0 8.0
7.3512635 3.3512635 8.351263
8.0 4.0 7.4696016
7.621931 8.0 3.6219308
5.0 1.0 10.164022
4.040737 4.0 10.040737
2.9524937 5.0 9.952494
7.8795176 8.0 2.8795173
4.0 10.485517 2.0
8.999 1.0 7.0
4.0 3.0 10.325893
9.805592 4.8055916 3.8055916
10.0 5.0 2.6683376
8.964108 6.9641085 2.0
9.121926 6.0 4.0
2.4222841 10.422284 4.0
4.2419524 10.241953 3.0
5.0 9.738491 3.7384913
1.9524938 10.952494 1.0
9.0 6.185841 4.0
6.1312976 7.0 7.1312976
1.0 6.999 8.999
6.4473066 9.0 3.4473064
1.0 10.639318 3.6393182
7.310313 4.310313 8.0
10.512524 4.0 1.5125235
8.562461 7.0 3.5624611
7.1312976 6.1312976 7.0
2.6493165 3.0 10.649317
2.0 9.0 6.9114175
4.0 10.054908 4.0
5.0 10.164022 1.0
9.421996 3.0 6.0
7.0 6.2781177 7.0
6.061544 9.061543 4.061544
4.3255043 10.325504 2.3255043
5.0 3.0 9.943625
3.39615 10.39615 3.39615
5.0 9.242784 5.0
9.3299055 3.3299057 6.0
4.0 8.408942 7.0
4.696236 5.696236 9.0
2.0 6.9641085 8.964108
4.032565 4.032565 10.032565
4.0 5.0 9.656902
1.6219308 9.621931 6.0
4.0 8.225659 7.2256594
8.668911 6.668911 4.0
8.0 6.5125237 5.5125237
6.0 6.040737 8.040737
2.0 5.0 10.109583
1.0 10.538208 4.0
4.9022975 2.9022973 10.0
10.113514 5.1135144 1.0
5.849844 4.849844 8.849844
2.3255043 10.325504 4.3255043
8.517565 7.517565 2.0
4.183247 8.183247 7.183247
5.0 1.1561716 10.156172
6.0 5.0 8.675116
10.0 2.9022973 4.9022975
2.334996 8.0 8.0
8.0 3.0 7.8504863
6.3729553 9.372955 2.0
10.385892 1.3858918 4.385892
10.0 4.0 4.144974
10.782713 2.7827127 2.0
9.409366 1.0 6.4093657
2.1707547 10.0 5.1707544
1.0 10.952494 1.9524938
10.535471 3.5354714 2.5354714
6.0 9.3299055 3.3299057
9.781235 1.0 5.7812347
3.7884252 7.788425 7.788425
4.0 8.0 7.4696016
5.338298 1.0 10.0
2.5125237 6.0 9.512524
2.6939592 10.693959 2.6939592
5.0 10.156172 1.1561716
4.7827125 8.782713 6.0
3.0 10.0 4.8593135
7.121724 7.121724 6.0
6.535917 4.535917 8.535917
10.9095 1.9095002 1.9095002
4.599847 4.599847 9.599847
7.535463 1.5354631 8.535463
7.0 5.559191 7.559191
10.782713 2.0 2.7827127
10.615237 3.6152372 1.6152372
2.0578299 8.0 8.05783
9.339134 6.339134 2.3391345
8.0 7.8504863 3.0
4.0 1.0 10.538208
5.0 2.0952694 10.095269
1.0 5.1135144 10.113514
8.0 7.4696016 4.0
4.599847 9.599847 4.599847
1.0 10.164022 5.0
3.0 9.960879 4.9608793
9.0 3.0 6.6427794
10.649317 2.6493165 3.0
7.0 8.408942 4.0
2.0 10.109583 5.0
1.6219308 6.0 9.621931
1.1561716 10.156172 5.0
7.5532784 1.0 8.553279
6.0 7.0 7.236444
5.0 4.0 9.656902
9.0 6.0 4.28926
4.310313 8.0 7.310313
2.0 7.517565 8.517565
4.0 10.512524 1.5125235
6.9469094 4.9469094 8.0
6.871218 8.871218 2.871218
6.598106 7.598106 6.0
8.871218 6.871218 2.871218
10.949848 1.0 2.0
6.855052 3.0 8.855052
1.5125235 10.512524 4.0
5.0 5.801956 8.801956
6.3030205 8.3030205 5.3030205
6.871218 2.871218 8.871218
8.137555 1.0 8.0
8.0 5.5125237 6.5125237
7.788425 3.7884252 7.788425
9.965545 4.9655447 2.9655447
9.0 2.0 6.9114175
7.0 7.1312976 6.1312976
6.420754 6.420754 7.420754
3.0 9.421996 6.0
4.8593135 10.0 3.0
5.0 9.473195 4.4731946
7.925452 5.0 7.0
7.925452 7.0 5.0
4.0 7.7440033 7.7440033
6.0 9.421996 3.0
6.047733 8.0 6.047733
3.0 9.0 6.6427794
5.5125237 6.5125237 8.0
3 59 368 917
3 59 593 368
3 693 551 917
3 551 59 917
3 917 368 573
3 693 403 950
3 693 917 403
3 917 573 403
3 290 530 78
3 290 280 530
3 368 593 78
3 593 290 78
3 78 530 211
3 368 900 573
3 368 78 900
3 78 211 900
3 685 859 922
3 685 41 859
3 530 280 922
3 280 685 922
3 922 859 73
3 530 370 211
3 530 922 370
3 922 73 370
3 150 371 500
3 150 711 371
3 859 41 500
3 41 150 500
3 500 371 256
3 859 27 73
3 859 500 27
3 500 256 27
3 676 511 109
3 676 748 511
3 109 453 456
3 676 456 119
3 676 109 456
3 109 511 151
3 109 803 453
3 109 151 803
3 887 119 168
3 371 711 168
3 711 887 168
3 119 456 168
3 371 713 256
3 371 168 713
3 456 713 168
3 456 453 713
3 703 524 383
3 703 266 524
3 383 504 102
3 703 102 451
3 703 383 102
3 383 524 48
3 383 847 504
3 383 48 847
3 683 451 276
3 511 748 276
3 748 683 276
3 451 102 276
3 511 680 151
3 511 276 680
3 102 680 276
3 102 504 680
3 44 74 226
3 44 692 74
3 524 266 226
3 266 44 226
3 226 74 604
3 524 890 48
3 524 226 890
3 226 604 890
3 146 75 237
3 146 684 75
3 237 735 58
3 146 58 727
3 146 237 58
3 237 75 324
3 237 700 735
3 237 324 700
3 169 727 213
3 213 648 112
3 169 112 28
3 169 213 112
3 727 58 213
3 213 392 648
3 58 392 213
3 58 735 392
3 90 28 222
3 74 692 222
3 692 90 222
3 28 112 222
3 74 717 604
3 74 222 717
3 112 717 222
3 112 648 717
3 335 758 132
3 335 25 758
3 132 591 304
3 335 304 438
3 335 132 304
3 132 758 585
3 132 209 591
3 132 585 209
3 113 438 603
3 75 684 603
3 684 113 603
3 438 304 603
3 75 897 324
3 75 603 897
3 304 897 603
3 304 591 897
3 852 312 311
3 311 152 798
3 852 798 221
3 852 311 798
3 312 903 311
3 311 232 152
3 903 232 311
3 903 615 232
3 626 221 478
3 478 356 497
3 626 497 725
3 626 478 497
3 221 798 478
3 478 760 356
3 798 760 478
3 798 152 760
3 461 725 607
3 607 842 945
3 461 945 354
3 461 607 945
3 725 497 607
3 607 729 842
3 497 729 607
3 497 356 729
3 796 354 271
3 271 744 912
3 796 912 865
3 796 271 912
3 354 945 271
3 271 244 744
3 945 244 271
3 945 842 244
3 421 865 516
3 758 25 516
3 25 421 516
3 865 912 516
3 758 204 585
3 758 516 204
3 912 204 516
3 912 744 204
3 403 921 129
3 403 573 921
3 147 950 129
3 950 403 129
3 129 921 807
3 147 1 170
3 147 129 1
3 129 807 1
3 900 652 688
3 900 211 652
3 921 573 688
3 573 900 688
3 688 652 617
3 921 934 807
3 921 688 934
3 688 617 934
3 370 797 904
3 370 73 797
3 652 211 904
3 211 370 904
3 904 797 223
3 652 467 617
3 652 904 467
3 904 223 467
3 959 846 485
3 959 618 47
3 959 47 846
3 959 485 766
3 959 133 618
3 959 766 133
3 27 679 641
3 27 256 679
3 797 73 641
3 73 27 641
3 47 679 846
3 47 641 679
3 797 54 223
3 797 641 54
3 47 54 641
3 47 618 54
3 803 571 669
3 803 151 571
3 485 347 669
3 485 846 347
3 803 347 453
3 803 669 347
3 669 571 236
3 485 13 766
3 485 669 13
3 669 236 13
3 713 453 592
3 679 256 592
3 256 713 592
3 453 347 592
3 846 679 592
3 347 846 592
3 847 547 949
3 847 48 547
3 949 532 300
3 847 300 504
3 847 949 300
3 949 547 653
3 949 309 532
3 949 653 309
3 680 504 924
3 571 151 924
3 151 680 924
3 504 300 924
3 571 293 236
3 571 924 293
3 300 293 924
3 300 532 293
3 788 174 841
3 788 925 625
3 788 625 174
3 788 841 761
3 788 714 925
3 788 761 714
3 890 428 710
3 890 604 428
3 547 48 710
3 48 890 710
3 625 428 174
3 625 710 428
3 547 707 653
3 547 710 707
3 625 707 710
3 625 925 707
3 700 224 947
3 700 324 224
3 947 569 781
3 700 781 735
3 700 947 781
3 947 224 258
3 947 548 569
3 947 258 548
3 392 735 640
3 841 203 640
3 841 174 203
3 392 203 648
3 392 640 203
3 735 781 640
3 841 686 761
3 841 640 686
3 781 686 640
3 781 569 686
3 717 648 208
3 428 604 208
3 604 717 208
3 648 203 208
3 174 428 208
3 203 174 208
3 263 507 251
3 263 623 144
3 263 144 507
3 263 251 964
3 263 343 623
3 263 964 343
3 209 141 605
3 209 585 141
3 605 969 65
3 209 65 591
3 209 605 65
3 144 141 507
3 144 605 141
3 605 719 969
3 144 719 605
3 144 623 719
3 897 591 583
3 224 324 583
3 324 897 583
3 591 65 583
3 224 242 258
3 224 583 242
3 65 242 583
3 65 969 242
3 232 615 637
3 637 580 767
3 232 767 152
3 232 637 767
3 615 269 637
3 637 657 580
3 269 657 637
3 269 805 657
3 760 152 911
3 911 537 160
3 760 160 356
3 760 911 160
3 152 767 911
3 911 602 537
3 767 602 911
3 767 580 602
3 729 356 173
3 173 809 732
3 729 732 842
3 729 173 732
3 356 160 173
3 173 108 809
3 160 108 173
3 160 537 108
3 244 842 869
3 251 804 869
3 251 507 804
3 244 804 744
3 244 869 804
3 842 732 869
3 251 850 964
3 251 869 850
3 732 850 869
3 732 809 850
3 204 744 578
3 141 585 578
3 585 204 578
3 744 804 578
3 507 141 578
3 804 507 578
3 1 409 110
3 1 807 409
3 463 170 110
3 170 1 110
3 110 409 314
3 463 395 694
3 463 110 395
3 110 314 395
3 934 655 338
3 934 617 655
3 409 807 338
3 807 934 338
3 338 655 177
3 409 594 314
3 409 338 594
3 338 177 594
3 467 234 341
3 467 223 234
3 655 617 341
3 617 467 341
3 341 234 16
3 655 480 177
3 655 341 480
3 341 16 480
3 133 549 845
3 133 766 549
3 845 282 494
3 133 494 618
3 133 845 494
3 845 549 782
3 845 171 282
3 845 782 171
3 54 618 631
3 234 223 631
3 223 54 631
3 618 494 631
3 234 816 16
3 234 631 816
3 494 816 631
3 494 282 816
3 13 510 274
3 13 236 510
3 549 766 274
3 766 13 274
3 274 510 848
3 549 792 782
3 549 274 792
3 274 848 792
3 309 860 247
3 309 653 860
3 247 853 317
3 309 317 532
3 309 247 317
3 247 860 448
3 247 881 853
3 247 448 881
3 293 532 517
3 510 236 517
3 236 293 517
3 532 317 517
3 510 121 848
3 510 517 121
3 317 121 517
3 317 853 121
3 714 837 89
3 714 761 837
3 89 929 69
3 714 69 925
3 714 89 69
3 89 837 381
3 89 771 929
3 89 381 771
3 707 925 559
3 860 653 559
3 653 707 559
3 925 69 559
3 860 406 448
3 860 559 406
3 69 406 559
3 69 929 406
3 548 856 799
3 548 258 856
3 799 935 310
3 548 310 569
3 548 799 310
3 799 856 769
3 799 646 935
3 799 769 646
3 686 569 452
3 837 761 452
3 761 686 452
3 569 310 452
3 837 277 381
3 837 452 277
3 310 277 452
3 310 935 277
3 343 558 745
3 343 964 558
3 745 794 851
3 343 851 623
3 343 745 851
3 745 558 733
3 745 14 794
3 745 733 14
3 719 623 172
3 172 114 905
3 719 905 969
3 719 172 905
3 623 851 172
3 172 190 114
3 851 190 172
3 851 794 190
3 242 969 12
3 856 258 12
3 258 242 12
3 969 905 12
3 856 46 769
3 856 12 46
3 905 46 12
3 905 114 46
3 657 805 772
3 772 614 100
3 657 100 580
3 657 772 100
3 805 857 772
3 772 952 614
3 857 952 772
3 857 885 952
3 602 580 189
3 189 340 201
3 602 201 537
3 602 189 201
3 580 100 189
3 189 849 340
3 100 849 189
3 100 614 849
3 108 537 871
3 871 864 210
3 108 210 809
3 108 871 210
3 537 201 871
3 871 572 864
3 201 572 871
3 201 340 572
3 850 809 45
3 558 964 45
3 964 850 45
3 809 210 45
3 558 154 733
3 558 45 154
3 210 154 45
3 210 864 154
3 395 455 898
3 395 314 455
3 697 694 898
3 694 395 898
3 898 455 649
3 697 124 91
3 697 898 124
3 898 649 124
3 449 363 665
3 449 484 894
3 449 894 363
3 449 665 15
3 449 60 484
3 449 15 60
3 594 629 200
3 594 177 629
3 455 314 200
3 314 594 200
3 894 629 363
3 894 200 629
3 455 450 649
3 455 200 450
3 894 450 200
3 894 484 450
3 376 899 715
3 665 527 376
3 665 363 527
3 376 527 899
3 376 715 722
3 665 811 15
3 665 376 811
3 376 722 811
3 480 219 812
3 480 16 219
3 629 177 812
3 177 480 812
3 527 219 899
3 527 812 219
3 363 629 812
3 527 363 812
3 171 752 468
3 171 782 752
3 715 294 468
3 715 899 294
3 171 294 282
3 171 468 294
3 468 752 441
3 715 492 722
3 715 468 492
3 468 441 492
3 816 282 77
3 219 16 77
3 16 816 77
3 282 294 77
3 899 219 77
3 294 899 77
3 459 942 821
3 459 107 763
3 459 763 942
3 459 821 365
3 459 545 107
3 459 365 545
3 792 360 442
3 792 848 360
3 752 782 442
3 782 792 442
3 763 360 942
3 763 442 360
3 752 651 441
3 752 442 651
3 763 651 442
3 763 107 651
3 764 466 627
3 764 212 285
3 764 285 466
3 764 627 967
3 764 413 212
3 764 967 413
3 881 620 770
3 881 448 620
3 821 188 770
3 821 942 188
3 881 188 853
3 881 770 188
3 285 620 466
3 285 770 620
3 821 38 365
3 821 770 38
3 285 38 770
3 285 212 38
3 121 853 192
3 360 848 192
3 848 121 192
3 853 188 192
3 942 360 192
3 188 942 192
3 672 477 84
3 672 134 393
3 672 393 477
3 672 84 515
3 672 330 134
3 672 515 330
3 771 26 145
3 771 381 26
3 627 460 145
3 627 466 460
3 771 460 929
3 771 145 460
3 393 26 477
3 393 145 26
3 627 632 967
3 627 145 632
3 393 632 145
3 393 134 632
3 406 929 86
3 620 448 86
3 448 406 86
3 929 460 86
3 466 620 86
3 460 466 86
3 197 0 586
3 197 140 3
3 197 3 0
3 197 586 538
3 197 439 140
3 197 538 439
3 646 235 66
3 646 769 235
3 84 206 66
3 84 477 206
3 646 206 935
3 646 66 206
3 3 235 0
3 3 66 235
3 84 94 515
3 84 66 94
3 3 94 66
3 3 140 94
3 277 935 426
3 26 381 426
3 381 277 426
3 935 206 426
3 477 26 426
3 206 477 426
3 5 914 380
3 5 227 932
3 5 932 914
3 5 380 628
3 5 353 227
3 5 628 353
3 584 125 264
3 584 698 790
3 584 790 125
3 932 264 914
3 932 584 264
3 584 826 698
3 932 826 584
3 932 227 826
3 14 777 930
3 14 733 777
3 930 872 965
3 14 965 794
3 14 930 965
3 790 777 125
3 790 930 777
3 930 305 872
3 790 305 930
3 790 698 305
3 190 794 35
3 586 502 35
3 586 0 502
3 190 502 114
3 190 35 502
3 794 965 35
3 586 182 538
3 586 35 182
3 965 182 35
3 965 872 182
3 46 114 868
3 235 769 868
3 769 46 868
3 114 502 868
3 0 235 868
3 502 0 868
3 952 885 265
3 265 936 29
3 952 29 614
3 952 265 29
3 885 587 265
3 265 938 936
3 587 938 265
3 587 931 938
3 849 614 889
3 380 199 889
3 380 914 199
3 849 199 340
3 849 889 199
3 614 29 889
3 380 56 628
3 380 889 56
3 29 56 889
3 29 936 56
3 572 340 315
3 264 229 315
3 264 125 229
3 572 229 864
3 572 315 229
3 340 199 315
3 914 264 315
3 199 914 315
3 154 864 389
3 777 733 389
3 733 154 389
3 864 229 389
3 125 777 389
3 229 125 389
3 137 429 198
3 906 739 137
3 906 283 739
3 137 739 429
3 137 198 241
3 906 372 179
3 906 137 372
3 137 241 372
3 124 6 319
3 124 649 6
3 731 91 319
3 91 124 319
3 739 6 429
3 739 319 6
3 283 731 319
3 739 283 319
3 60 677 454
3 60 15 677
3 198 579 454
3 198 429 579
3 60 579 484
3 60 454 579
3 454 677 866
3 198 590 241
3 198 454 590
3 454 866 590
3 450 484 176
3 6 649 176
3 649 450 176
3 484 579 176
3 429 6 176
3 579 429 176
3 811 831 597
3 811 722 831
3 677 15 597
3 15 811 597
3 597 831 506
3 677 873 866
3 677 597 873
3 597 506 873
3 779 130 610
3 779 531 155
3 779 155 130
3 779 610 162
3 779 791 531
3 779 162 791
3 492 106 756
3 492 441 106
3 831 722 756
3 722 492 756
3 155 106 130
3 155 756 106
3 831 191 506
3 831 756 191
3 155 191 756
3 155 531 191
3 545 8 778
3 545 365 8
3 610 458 778
3 610 130 458
3 545 458 107
3 545 778 458
3 778 8 802
3 610 608 162
3 610 778 608
3 778 802 608
3 651 107 339
3 106 441 339
3 441 651 339
3 107 458 339
3 130 106 339
3 458 130 339
3 413 512 72
3 413 967 512
3 72 193 882
3 413 882 212
3 413 72 882
3 72 512 521
3 72 552 193
3 72 521 552
3 38 212 553
3 8 365 553
3 365 38 553
3 212 882 553
3 8 40 802
3 8 553 40
3 882 40 553
3 882 193 40
3 330 377 520
3 330 515 377
3 520 64 741
3 330 741 134
3 330 520 741
3 520 377 10
3 520 948 64
3 520 10 948
3 632 134 180
3 512 967 180
3 967 632 180
3 134 741 180
3 512 915 521
3 512 180 915
3 741 915 180
3 741 64 915
3 143 296 674
3 143 457 612
3 143 612 296
3 143 674 417
3 143 913 457
3 143 417 913
3 439 660 326
3 439 538 660
3 326 115 656
3 439 656 140
3 439 326 656
3 612 660 296
3 612 326 660
3 326 726 115
3 612 726 326
3 612 457 726
3 94 140 954
3 377 515 954
3 515 94 954
3 140 656 954
3 377 37 10
3 377 954 37
3 656 37 954
3 656 115 37
3 118 253 737
3 118 818 153
3 118 153 253
3 149 737 819
3 149 118 737
3 118 879 818
3 149 879 118
3 149 414 879
3 353 902 148
3 353 628 902
3 148 963 471
3 353 471 227
3 353 148 471
3 153 902 253
3 153 148 902
3 148 181 963
3 153 181 148
3 153 818 181
3 826 227 228
3 228 397 320
3 826 320 698
3 826 228 320
3 227 471 228
3 228 328 397
3 471 328 228
3 471 963 328
3 305 698 776
3 674 577 776
3 674 296 577
3 305 577 872
3 305 776 577
3 698 320 776
3 674 616 417
3 674 776 616
3 320 616 776
3 320 397 616
3 182 872 536
3 660 538 536
3 538 182 536
3 872 577 536
3 296 660 536
3 577 296 536
3 938 931 301
3 737 560 301
3 737 253 560
3 938 560 936
3 938 301 560
3 931 384 301
3 819 737 301
3 384 819 301
3 56 936 333
3 902 628 333
3 628 56 333
3 936 560 333
3 253 902 333
3 560 253 333
3 757 960 302
3 755 801 757
3 755 743 801
3 757 801 960
3 757 302 178
3 755 183 843
3 755 757 183
3 757 178 183
3 372 336 529
3 372 241 336
3 901 179 529
3 179 372 529
3 801 336 960
3 801 529 336
3 743 901 529
3 801 743 529
3 601 933 476
3 302 472 601
3 302 960 472
3 601 472 933
3 601 476 291
3 302 238 178
3 302 601 238
3 601 291 238
3 590 635 789
3 590 866 635
3 336 241 789
3 241 590 789
3 472 635 933
3 472 789 635
3 960 336 789
3 472 960 789
3 661 822 259
3 476 747 661
3 476 933 747
3 661 747 822
3 661 259 350
3 476 554 291
3 476 661 554
3 661 350 554
3 873 787 564
3 873 506 787
3 635 866 564
3 866 873 564
3 747 787 822
3 747 564 787
3 933 635 564
3 747 933 564
3 332 427 344
3 332 34 255
3 332 255 427
3 332 344 966
3 332 322 34
3 332 966 322
3 791 754 239
3 791 162 754
3 259 57 239
3 259 822 57
3 791 57 531
3 791 239 57
3 255 754 427
3 255 239 754
3 259 431 350
3 259 239 431
3 255 431 239
3 255 34 431
3 191 531 55
3 787 506 55
3 506 191 55
3 531 57 55
3 822 787 55
3 57 822 55
3 95 80 514
3 344 957 95
3 344 427 957
3 95 957 80
3 95 514 783
3 344 292 966
3 344 95 292
3 95 783 292
3 608 568 734
3 608 802 568
3 754 162 734
3 162 608 734
3 957 568 80
3 957 734 568
3 427 754 734
3 957 427 734
3 194 528 526
3 194 867 68
3 194 68 528
3 194 526 695
3 194 479 867
3 194 695 479
3 552 348 709
3 552 521 348
3 514 308 709
3 514 80 308
3 552 308 193
3 552 709 308
3 68 348 528
3 68 709 348
3 514 861 783
3 514 709 861
3 68 861 709
3 68 867 861
3 40 193 407
3 568 802 407
3 802 40 407
3 193 308 407
3 80 568 407
3 308 80 407
3 505 508 19
3 505 404 412
3 505 412 508
3 505 19 122
3 505 21 404
3 505 122 21
3 574 2 116
3 574 785 486
3 574 486 2
3 412 116 508
3 412 574 116
3 574 342 785
3 412 342 574
3 412 404 342
3 948 970 644
3 948 10 970
3 526 961 644
3 526 528 961
3 948 961 64
3 948 644 961
3 486 970 2
3 486 644 970
3 526 825 695
3 526 644 825
3 486 825 644
3 486 785 825
3 915 64 307
3 348 521 307
3 521 915 307
3 64 961 307
3 528 348 307
3 961 528 307
3 658 863 565
3 658 87 364
3 658 364 863
3 396 565 624
3 396 658 565
3 658 749 87
3 396 749 658
3 396 20 749
3 81 971 705
3 81 9 52
3 81 52 971
3 364 705 863
3 364 81 705
3 81 689 9
3 364 689 81
3 364 87 689
3 279 349 422
3 279 874 446
3 279 446 349
3 52 422 971
3 52 279 422
3 279 832 874
3 52 832 279
3 52 9 832
3 913 243 157
3 913 417 243
3 19 366 157
3 19 508 366
3 913 366 457
3 913 157 366
3 446 243 349
3 446 157 243
3 19 647 122
3 19 157 647
3 446 647 157
3 446 874 647
3 726 457 443
3 116 135 443
3 116 2 135
3 726 135 115
3 726 443 135
3 457 366 443
3 508 116 443
3 366 508 443
3 37 115 813
3 970 10 813
3 10 37 813
3 115 135 813
3 2 970 813
3 135 2 813
3 879 414 519
3 565 378 519
3 565 863 378
3 879 378 818
3 879 519 378
3 414 104 519
3 624 565 519
3 104 624 519
3 181 818 483
3 705 721 483
3 705 971 721
3 181 721 963
3 181 483 721
3 818 378 483
3 863 705 483
3 378 863 483
3 328 963 85
3 422 633 85
3 422 349 633
3 328 633 397
3 328 85 633
3 963 721 85
3 971 422 85
3 721 971 85
3 616 397 664
3 243 417 664
3 417 616 664
3 397 633 664
3 349 243 664
3 633 349 664
3 183 723 374
3 183 178 723
3 724 843 374
3 843 183 374
3 374 723 800
3 724 639 956
3 724 374 639
3 374 800 639
3 434 896 544
3 434 533 358
3 434 358 896
3 434 544 834
3 434 503 533
3 434 834 503
3 238 233 595
3 238 291 233
3 723 178 595
3 178 238 595
3 358 233 896
3 358 595 233
3 723 493 800
3 723 595 493
3 358 493 595
3 358 533 493
3 958 836 42
3 544 185 958
3 544 896 185
3 958 185 836
3 958 42 609
3 544 444 834
3 544 958 444
3 958 609 444
3 554 495 738
3 554 350 495
3 233 291 738
3 291 554 738
3 185 495 836
3 185 738 495
3 896 233 738
3 185 896 738
3 166 491 355
3 166 398 499
3 166 499 491
3 166 355 11
3 166 946 398
3 166 11 946
3 322 248 245
3 322 966 248
3 42 534 245
3 42 836 534
3 322 534 34
3 322 245 534
3 499 248 491
3 499 245 248
3 42 858 609
3 42 245 858
3 499 858 245
3 499 398 858
3 431 34 165
3 495 350 165
3 350 431 165
3 34 534 165
3 836 495 165
3 534 836 165
3 184 562 828
3 355 920 184
3 355 491 920
3 184 920 562
3 184 828 440
3 355 556 11
3 355 184 556
3 184 440 556
3 292 388 808
3 292 783 388
3 248 966 808
3 966 292 808
3 920 388 562
3 920 808 388
3 491 248 808
3 920 491 808
3 489 550 323
3 489 621 824
3 489 824 550
3 489 323 765
3 489 606 621
3 489 765 606
3 423 940 588
3 423 687 432
3 423 432 940
3 824 588 550
3 824 423 588
3 423 972 687
3 824 972 423
3 824 621 972
3 479 854 962
3 479 695 854
3 828 220 962
3 828 562 220
3 479 220 867
3 479 962 220
3 432 854 940
3 432 962 854
3 828 522 440
3 828 962 522
3 432 522 962
3 432 687 522
3 861 867 295
3 388 783 295
3 783 861 295
3 867 220 295
3 562 388 295
3 220 562 295
3 740 582 306
3 740 673 50
3 740 50 582
3 740 306 895
3 740 465 673
3 740 895 465
3 907 908 419
3 907 589 968
3 907 968 908
3 50 419 582
3 50 907 419
3 907 142 589
3 50 142 907
3 50 673 142
3 21 943 126
3 21 122 943
3 323 39 126
3 323 550 39
3 21 39 404
3 21 126 39
3 968 943 908
3 968 126 943
3 323 399 765
3 323 126 399
3 968 399 126
3 968 589 399
3 342 404 82
3 588 186 82
3 588 940 186
3 342 186 785
3 342 82 186
3 404 39 82
3 550 588 82
3 39 550 82
3 825 785 470
3 854 695 470
3 695 825 470
3 785 186 470
3 940 854 470
3 186 940 470
3 749 20 730
3 730 662 164
3 749 164 87
3 749 730 164
3 20 93 730
3 730 659 662
3 93 659 730
3 93 667 659
3 689 87 702
3 306 806 702
3 306 582 806
3 689 806 9
3 689 702 806
3 87 164 702
3 306 557 895
3 306 702 557
3 164 557 702
3 164 662 557
3 832 9 742
3 419 880 742
3 419 908 880
3 832 880 874
3 832 742 880
3 9 806 742
3 582 419 742
3 806 582 742
3 647 874 891
3 943 122 891
3 122 647 891
3 874 880 891
3 908 943 891
3 880 908 891
3 746 286 596
3 249 297 746
3 249 61 297
3 746 297 286
3 746 596 260
3 249 53 331
3 249 746 53
3 746 260 53
3 919 387 718
3 939 215 919
3 939 753 215
3 919 215 387
3 297 718 286
3 297 919 718
3 61 939 919
3 297 61 919
3 639 303 784
3 639 800 303
3 202 956 784
3 956 639 784
3 215 303 387
3 215 784 303
3 753 202 784
3 215 753 784
3 955 254 951
3 596 814 955
3 596 286 814
3 955 814 254
3 955 951 4
3 596 281 260
3 596 955 281
3 955 4 281
3 503 123 575
3 503 834 123
3 718 299 575
3 718 387 299
3 503 299 533
3 503 575 299
3 814 123 254
3 814 575 123
3 286 718 575
3 814 286 575
3 493 533 810
3 303 800 810
3 800 493 810
3 533 299 810
3 387 303 810
3 299 387 810
3 105 645 543
3 951 187 105
3 951 254 187
3 105 187 645
3 105 543 666
3 951 563 4
3 951 105 563
3 105 666 563
3 444 642 835
3 444 609 642
3 123 834 835
3 834 444 835
3 187 642 645
3 187 835 642
3 254 123 835
3 187 254 835
3 888 893 567
3 888 325 18
3 888 18 893
3 888 567 97
3 888 561 325
3 888 97 561
3 946 158 916
3 946 11 158
3 543 88 916
3 543 645 88
3 946 88 398
3 946 916 88
3 18 158 893
3 18 916 158
3 543 24 666
3 543 916 24
3 18 24 916
3 18 325 24
3 858 398 509
3 642 609 509
3 609 858 509
3 398 88 509
3 645 642 509
3 88 645 509
3 712 817 751
3 712 701 953
3 712 953 817
3 712 751 482
3 712 875 701
3 712 482 875
3 382 261 175
3 567 92 382
3 567 893 92
3 382 92 261
3 953 175 817
3 953 382 175
3 567 696 97
3 567 382 696
3 953 696 382
3 953 701 696
3 556 634 284
3 556 440 634
3 158 11 284
3 11 556 284
3 92 634 261
3 92 284 634
3 893 158 284
3 92 893 284
3 555 435 706
3 555 405 876
3 555 876 435
3 855 706 774
3 855 555 706
3 555 541 405
3 855 541 555
3 855 401 541
3 668 207 98
3 668 252 369
3 668 369 207
3 876 98 435
3 876 668 98
3 668 161 252
3 876 161 668
3 876 405 161
3 32 400 775
3 32 759 385
3 32 385 400
3 369 775 207
3 369 32 775
3 32 156 759
3 369 156 32
3 369 252 156
3 606 386 728
3 606 765 386
3 751 79 728
3 751 817 79
3 606 79 621
3 606 728 79
3 385 386 400
3 385 728 386
3 751 487 482
3 751 728 487
3 385 487 728
3 385 759 487
3 972 621 823
3 175 883 823
3 175 261 883
3 972 883 687
3 972 823 883
3 621 79 823
3 817 175 823
3 79 817 823
3 522 687 539
3 634 440 539
3 440 522 539
3 687 883 539
3 261 634 539
3 883 261 539
3 67 361 111
3 706 944 67
3 706 435 944
3 67 944 361
3 101 111 773
3 101 67 111
3 774 706 67
3 101 774 67
3 465 923 321
3 465 895 923
3 98 246 321
3 98 207 246
3 465 246 673
3 465 321 246
3 944 923 361
3 944 321 923
3 435 98 321
3 944 435 321
3 142 673 425
3 775 410 425
3 775 400 410
3 142 410 589
3 142 425 410
3 673 246 425
3 207 775 425
3 246 207 425
3 399 589 663
3 386 765 663
3 765 399 663
3 589 410 663
3 400 386 663
3 410 400 663
3 659 667 318
3 111 163 318
3 111 361 163
3 659 163 662
3 659 318 163
3 667 750 318
3 773 111 318
3 750 773 318
3 557 662 496
3 923 895 496
3 895 557 496
3 662 163 496
3 361 923 496
3 163 361 496
3 780 96 159
3 830 394 780
3 830 762 394
3 780 394 96
3 780 159 678
3 830 316 909
3 830 780 316
3 780 678 316
3 53 437 699
3 53 260 437
3 736 331 699
3 331 53 699
3 394 437 96
3 394 699 437
3 762 736 699
3 394 762 699
3 473 870 257
3 473 820 62
3 473 62 870
3 473 257 298
3 473 886 820
3 473 298 886
3 196 128 275
3 159 793 196
3 159 96 793
3 196 793 128
3 62 275 870
3 62 196 275
3 159 288 678
3 159 196 288
3 62 288 196
3 62 820 288
3 281 481 345
3 281 4 481
3 437 260 345
3 260 281 345
3 793 481 128
3 793 345 481
3 96 437 345
3 793 96 345
3 581 941 195
3 257 22 581
3 257 870 22
3 581 22 941
3 581 195 720
3 257 63 298
3 257 581 63
3 581 720 63
3 375 540 546
3 275 670 375
3 275 128 670
3 375 670 540
3 22 546 941
3 22 375 546
3 870 275 375
3 22 870 375
3 563 337 827
3 563 666 337
3 481 4 827
3 4 563 827
3 670 337 540
3 670 827 337
3 128 481 827
3 670 128 827
3 424 576 840
3 424 708 682
3 424 682 576
3 424 840 690
3 424 430 708
3 424 690 430
3 518 878 501
3 518 391 611
3 518 611 878
3 682 501 576
3 682 518 501
3 518 43 391
3 682 43 518
3 682 708 43
3 918 262 367
3 195 334 918
3 195 941 334
3 918 334 262
3 611 367 878
3 611 918 367
3 195 490 720
3 195 918 490
3 611 490 918
3 611 391 490
3 561 416 599
3 561 97 416
3 546 786 599
3 546 540 786
3 561 786 325
3 561 599 786
3 334 416 262
3 334 599 416
3 941 546 599
3 334 941 599
3 24 325 103
3 337 666 103
3 666 24 103
3 325 786 103
3 540 337 103
3 786 540 103
3 675 795 937
3 675 70 420
3 675 420 795
3 225 937 7
3 225 675 937
3 675 272 70
3 225 272 675
3 225 23 272
3 278 829 910
3 840 36 278
3 840 576 36
3 278 36 829
3 420 910 795
3 420 278 910
3 840 76 690
3 840 278 76
3 420 76 278
3 420 70 76
3 231 352 83
3 501 474 231
3 501 878 474
3 231 474 352
3 36 83 829
3 36 231 83
3 576 501 231
3 36 576 231
3 875 359 464
3 875 482 359
3 367 469 464
3 367 262 469
3 875 469 701
3 875 464 469
3 474 359 352
3 474 464 359
3 878 367 464
3 474 878 464
3 696 701 289
3 416 97 289
3 97 696 289
3 701 469 289
3 262 416 289
3 469 262 289
3 541 401 268
3 937 230 268
3 937 795 230
3 541 230 405
3 541 268 230
3 401 31 268
3 7 937 268
3 31 7 268
3 161 405 815
3 910 131 815
3 910 829 131
3 161 131 252
3 161 815 131
3 405 230 815
3 795 910 815
3 230 795 815
3 156 252 127
3 83 681 127
3 83 352 681
3 156 681 759
3 156 127 681
3 252 131 127
3 829 83 127
3 131 829 127
3 487 759 704
3 359 482 704
3 482 487 704
3 759 681 704
3 352 359 704
3 681 352 704
3 138 205 287
3 630 313 138
3 630 402 313
3 138 313 205
3 390 287 600
3 390 138 287
3 622 630 138
3 390 622 138
3 136 218 475
3 433 346 136
3 433 598 346
3 136 346 218
3 313 475 205
3 313 136 475
3 402 433 136
3 313 402 136
3 408 139 357
3 447 373 408
3 447 926 373
3 408 373 139
3 346 357 218
3 346 408 357
3 598 447 408
3 346 598 408
3 535 833 498
3 513 892 535
3 513 838 892
3 535 892 833
3 373 498 139
3 373 535 498
3 926 513 535
3 373 926 535
3 316 17 51
3 316 678 17
3 619 909 51
3 909 316 51
3 892 17 833
3 892 51 17
3 838 619 51
3 892 838 51
3 30 570 49
3 287 411 30
3 287 205 411
3 30 411 570
3 71 49 654
3 71 30 49
3 600 287 30
3 71 600 30
3 217 273 862
3 475 643 217
3 475 218 643
3 217 643 273
3 411 862 570
3 411 217 862
3 205 475 217
3 411 205 217
3 523 844 768
3 357 691 523
3 357 139 691
3 523 691 844
3 643 768 273
3 643 523 768
3 218 357 523
3 643 218 523
3 886 488 418
3 886 298 488
3 498 927 418
3 498 833 927
3 886 927 820
3 886 418 927
3 691 488 844
3 691 418 488
3 139 498 418
3 691 139 418
3 288 820 415
3 17 678 415
3 678 288 415
3 820 927 415
3 833 17 415
3 927 833 415
3 240 542 327
3 49 250 240
3 49 570 250
3 240 250 542
3 636 327 671
3 636 240 327
3 654 49 240
3 636 654 240
3 214 436 445
3 862 117 214
3 862 273 117
3 214 117 436
3 250 445 542
3 250 214 445
3 570 862 214
3 250 570 214
3 267 716 613
3 768 329 267
3 768 844 329
3 267 329 716
3 117 613 436
3 117 267 613
3 273 768 267
3 117 273 267
3 63 839 167
3 63 720 839
3 488 298 167
3 298 63 167
3 329 839 716
3 329 167 839
3 844 488 167
3 329 844 167
3 462 884 216
3 327 362 462
3 327 542 362
3 462 362 884
3 99 216 650
3 99 462 216
3 671 327 462
3 99 671 462
3 430 566 270
3 430 690 566
3 445 525 270
3 445 436 525
3 430 525 708
3 430 270 525
3 362 566 884
3 362 270 566
3 542 445 270
3 362 542 270
3 43 708 120
3 613 379 120
3 613 716 379
3 43 379 391
3 43 120 379
3 708 525 120
3 436 613 120
3 525 436 120
3 490 391 877
3 839 720 877
3 720 490 877
3 391 379 877
3 716 839 877
3 379 716 877
3 272 23 638
3 216 33 638
3 216 884 33
3 272 33 70
3 272 638 33
3 23 928 638
3 650 216 638
3 928 650 638
3 76 70 351
3 566 690 351
3 690 76 351
3 70 33 351
3 884 566 351
3 33 884 351
